<svg width="336" height="58" viewBox="0 0 336 58" fill="none" xmlns="http://www.w3.org/2000/svg">
<g clip-path="url(#clip0_9_2)">
<mask id="mask0_9_2" style="mask-type:luminance" maskUnits="userSpaceOnUse" x="-18" y="-28" width="48" height="100">
<path d="M30 -28H-18V72H30V-28Z" fill="white"/>
</mask>
<g mask="url(#mask0_9_2)">
<path d="M0.835894 51.0664C0.835894 49.2435 1.48699 47.7135 2.78909 46.4766C4.02599 45.1745 5.55599 44.5234 7.37889 44.5234H34.832C36.069 44.4583 37.0781 44.1654 37.8594 43.6445C38.7057 43.1237 39.3242 42.5378 39.7148 41.8867C40.1055 41.2357 40.3008 40.5521 40.3008 39.8359C40.3008 39.1198 40.1055 38.4362 39.7148 37.7852C39.3242 37.1341 38.7057 36.5482 37.8594 36.0273C37.0781 35.5065 36.069 35.2135 34.832 35.1484H7.57419C5.75129 35.1484 4.22139 34.4974 2.98439 33.1953C1.68229 31.9583 1.03119 30.4284 1.03119 28.6055C1.03119 26.7826 1.64969 25.2526 2.88669 24.0156C4.18879 22.7135 5.75129 22.0625 7.57419 22.0625H34.2461C34.3112 22.0625 34.3763 22.0625 34.4414 22.0625C35.6784 21.9974 36.6875 21.737 37.4688 21.2812C38.3151 20.7604 38.9336 20.1745 39.3242 19.5234C39.7148 18.8724 39.9102 18.1888 39.9102 17.4727C39.9102 16.8216 39.7148 16.1706 39.3242 15.5195C38.9336 14.8685 38.3151 14.3151 37.4688 13.8594C36.6875 13.3385 35.6784 13.0456 34.4414 12.9805H7.18359C5.36069 12.9805 3.83069 12.3294 2.59379 11.0273C1.29169 9.8555 0.640594 8.3581 0.640594 6.5352C0.640594 4.7773 1.25909 3.2799 2.49609 2.043C3.79819 0.805999 5.36069 0.1875 7.18359 0.1875H33.8555C38.4128 0.2526 42.1562 1.2617 45.0859 3.2148C48.0807 5.1029 50.1966 7.3164 51.4336 9.8555C52.7357 12.3945 53.3867 14.9336 53.3867 17.4727C53.3867 20.0117 52.7357 22.5182 51.4336 24.9922C50.8477 26.1641 50.099 27.2383 49.1875 28.2148C50.2943 29.3867 51.2057 30.6237 51.9219 31.9258C53.1589 34.5299 53.7773 37.1667 53.7773 39.8359C53.7773 42.375 53.1263 44.9466 51.8242 47.5508C50.5221 50.0898 48.4062 52.3685 45.4766 54.3867C42.5469 56.3398 38.8034 57.3815 34.2461 57.5117H33.6602C33.2695 57.5768 32.8789 57.6094 32.4883 57.6094H7.37889C5.55599 57.6094 3.99349 56.9909 2.69139 55.7539C1.45439 54.4518 0.835894 52.8893 0.835894 51.0664Z" fill="#D1D5DB" fill-opacity="0.16"/>
</g>
<mask id="mask1_9_2" style="mask-type:luminance" maskUnits="userSpaceOnUse" x="-4" y="-28" width="54" height="100">
<path d="M50 -28H-4V72H50V-28Z" fill="white"/>
</mask>
<g mask="url(#mask1_9_2)">
<path d="M14.8359 51.0664C14.8359 49.2435 15.487 47.7135 16.7891 46.4766C18.026 45.1745 19.556 44.5234 21.3789 44.5234H52.832C54.069 44.4583 55.0781 44.1654 55.8594 43.6445C56.7057 43.1237 57.3242 42.5378 57.7148 41.8867C58.1055 41.2357 58.3008 40.5521 58.3008 39.8359C58.3008 39.1198 58.1055 38.4362 57.7148 37.7852C57.3242 37.1341 56.7057 36.5482 55.8594 36.0273C55.0781 35.5065 54.069 35.2135 52.832 35.1484H21.5742C19.7513 35.1484 18.2214 34.4974 16.9844 33.1953C15.6823 31.9583 15.0312 30.4284 15.0312 28.6055C15.0312 26.7826 15.6497 25.2526 16.8867 24.0156C18.1888 22.7135 19.7513 22.0625 21.5742 22.0625H52.2461C52.3112 22.0625 52.3763 22.0625 52.4414 22.0625C53.6784 21.9974 54.6875 21.737 55.4688 21.2812C56.3151 20.7604 56.9336 20.1745 57.3242 19.5234C57.7148 18.8724 57.9102 18.1888 57.9102 17.4727C57.9102 16.8216 57.7148 16.1706 57.3242 15.5195C56.9336 14.8685 56.3151 14.3151 55.4688 13.8594C54.6875 13.3385 53.6784 13.0456 52.4414 12.9805H21.1836C19.3607 12.9805 17.8307 12.3294 16.5938 11.0273C15.2917 9.8555 14.6406 8.3581 14.6406 6.5352C14.6406 4.7773 15.2591 3.2799 16.4961 2.043C17.7982 0.805999 19.3607 0.1875 21.1836 0.1875H51.8555C56.4128 0.2526 60.1562 1.2617 63.0859 3.2148C66.0807 5.1029 68.1966 7.3164 69.4336 9.8555C70.7357 12.3945 71.3867 14.9336 71.3867 17.4727C71.3867 20.0117 70.7357 22.5182 69.4336 24.9922C68.8477 26.1641 68.099 27.2383 67.1875 28.2148C68.2943 29.3867 69.2057 30.6237 69.9219 31.9258C71.1589 34.5299 71.7773 37.1667 71.7773 39.8359C71.7773 42.375 71.1263 44.9466 69.8242 47.5508C68.5221 50.0898 66.4062 52.3685 63.4766 54.3867C60.5469 56.3398 56.8034 57.3815 52.2461 57.5117H51.6602C51.2695 57.5768 50.8789 57.6094 50.4883 57.6094H21.3789C19.556 57.6094 17.9935 56.9909 16.6914 55.7539C15.4544 54.4518 14.8359 52.8893 14.8359 51.0664Z" fill="#8F8F8F"/>
</g>
<path d="M29.8359 51.0664C29.8359 49.2435 30.487 47.7135 31.7891 46.4766C33.026 45.1745 34.556 44.5234 36.3789 44.5234H63.832C65.069 44.4583 66.0781 44.1654 66.8594 43.6445C67.7057 43.1237 68.3242 42.5378 68.7148 41.8867C69.1055 41.2357 69.3008 40.5521 69.3008 39.8359C69.3008 39.1198 69.1055 38.4362 68.7148 37.7852C68.3242 37.1341 67.7057 36.5482 66.8594 36.0273C66.0781 35.5065 65.069 35.2135 63.832 35.1484H36.5742C34.7513 35.1484 33.2214 34.4974 31.9844 33.1953C30.6823 31.9583 30.0312 30.4284 30.0312 28.6055C30.0312 26.7826 30.6497 25.2526 31.8867 24.0156C33.1888 22.7135 34.7513 22.0625 36.5742 22.0625H63.2461C63.3112 22.0625 63.3763 22.0625 63.4414 22.0625C64.6784 21.9974 65.6875 21.737 66.4688 21.2812C67.3151 20.7604 67.9336 20.1745 68.3242 19.5234C68.7148 18.8724 68.9102 18.1888 68.9102 17.4727C68.9102 16.8216 68.7148 16.1706 68.3242 15.5195C67.9336 14.8685 67.3151 14.3151 66.4688 13.8594C65.6875 13.3385 64.6784 13.0456 63.4414 12.9805H36.1836C34.3607 12.9805 32.8307 12.3294 31.5938 11.0273C30.2917 9.8555 29.6406 8.3581 29.6406 6.5352C29.6406 4.7773 30.2591 3.2799 31.4961 2.043C32.7982 0.805999 34.3607 0.1875 36.1836 0.1875H62.8555C67.4128 0.2526 71.1562 1.2617 74.0859 3.2148C77.0807 5.1029 79.1966 7.3164 80.4336 9.8555C81.7357 12.3945 82.387 14.9336 82.387 17.4727C82.387 20.0117 81.7357 22.5182 80.4336 24.9922C79.8477 26.1641 79.099 27.2383 78.1875 28.2148C79.2943 29.3867 80.2057 30.6237 80.9219 31.9258C82.159 34.5299 82.777 37.1667 82.777 39.8359C82.777 42.375 82.126 44.9466 80.8242 47.5508C79.5221 50.0898 77.4062 52.3685 74.4766 54.3867C71.5469 56.3398 67.8034 57.3815 63.2461 57.5117H62.6602C62.2695 57.5768 61.8789 57.6094 61.4883 57.6094H36.3789C34.556 57.6094 32.9935 56.9909 31.6914 55.7539C30.4544 54.4518 29.8359 52.8893 29.8359 51.0664Z" fill="#D1D5DB"/>
<path d="M132.36 57H148.52L136.76 38.52C143.32 35.24 146.92 29.08 146.92 20.52C146.92 8.04 138.44 1 123.64 1H100.6C99.496 1 98.6 1.8954 98.6 3V57H112.84V41.24H123.64H124.04L132.36 57ZM112.84 30.04V12.2H123.64C129.8 12.2 133.4 15.16 133.4 21C133.4 26.92 129.8 30.04 123.64 30.04H112.84Z" fill="#D1D5DB"/>
<path d="M176.411 13.4C162.251 13.4 152.811 22.12 152.811 35.4C152.811 48.68 162.251 57.48 176.411 57.48C190.491 57.48 199.931 48.68 199.931 35.4C199.931 22.12 190.491 13.4 176.411 13.4ZM176.411 24.36C182.091 24.36 186.011 28.92 186.011 35.56C186.011 42.28 182.091 46.76 176.411 46.76C170.651 46.76 166.731 42.28 166.731 35.56C166.731 28.92 170.651 24.36 176.411 24.36Z" fill="#D1D5DB"/>
<path d="M249.348 13.88H235.508V35.16C235.508 41 232.388 45.32 227.108 45.4C222.708 45.4 219.908 42.28 219.908 37.16V13.88H206.068V41.08C206.068 51.16 212.148 57.56 221.508 57.56C227.748 57.56 232.548 55 235.508 49.88V57H249.348V13.88Z" fill="#D1D5DB"/>
<path d="M285.515 45.08C283.435 45.96 281.595 46.52 280.155 46.52C277.595 46.6 276.155 45.16 276.155 41.8V24.92H287.435V15.8H276.155V3.88H262.395V15.88H256.395V24.92H262.395V43.96C262.395 52.92 268.395 57.64 276.715 57.64C280.875 57.64 285.115 56.52 288.235 54.68L285.515 45.08Z" fill="#D1D5DB"/>
<path d="M313.806 13.4C300.446 13.4 291.326 22.2 291.326 35.56C291.326 48.68 300.126 57.48 314.206 57.48C322.126 57.48 328.606 54.68 333.006 49.88L325.726 42.76C322.846 45.64 319.166 47.16 315.406 47.16C310.286 47.16 306.606 44.28 305.246 39.16H335.566C336.526 23.4 329.006 13.4 313.806 13.4ZM305.006 31.72C305.886 26.52 309.166 23 313.966 23C318.926 23 322.286 26.44 322.286 31.72H305.006Z" fill="#D1D5DB"/>
</g>
<defs>
<clipPath id="clip0_9_2">
<rect width="336" height="58" fill="white"/>
</clipPath>
</defs>
</svg>
