<svg width="92" height="92" viewBox="0 0 92 92" fill="none" xmlns="http://www.w3.org/2000/svg">
<g clip-path="url(#clip0_2_2)">
<mask id="mask0_2_2" style="mask-type:luminance" maskUnits="userSpaceOnUse" x="-14" y="-11" width="48" height="100">
<path d="M34 -11H-14V89H34V-11Z" fill="white"/>
</mask>
<g mask="url(#mask0_2_2)">
<path d="M4.83589 68.0664C4.83589 66.2435 5.48699 64.7135 6.78909 63.4766C8.02599 62.1745 9.55599 61.5234 11.3789 61.5234H38.832C40.069 61.4583 41.0781 61.1654 41.8594 60.6445C42.7057 60.1237 43.3242 59.5378 43.7148 58.8867C44.1055 58.2357 44.3008 57.5521 44.3008 56.8359C44.3008 56.1198 44.1055 55.4362 43.7148 54.7852C43.3242 54.1341 42.7057 53.5482 41.8594 53.0273C41.0781 52.5065 40.069 52.2135 38.832 52.1484H11.5742C9.75129 52.1484 8.22139 51.4974 6.98439 50.1953C5.68229 48.9583 5.03119 47.4284 5.03119 45.6055C5.03119 43.7826 5.64969 42.2526 6.88669 41.0156C8.18879 39.7135 9.75129 39.0625 11.5742 39.0625H38.2461C38.3112 39.0625 38.3763 39.0625 38.4414 39.0625C39.6784 38.9974 40.6875 38.737 41.4688 38.2812C42.3151 37.7604 42.9336 37.1745 43.3242 36.5234C43.7148 35.8724 43.9102 35.1888 43.9102 34.4727C43.9102 33.8216 43.7148 33.1706 43.3242 32.5195C42.9336 31.8685 42.3151 31.3151 41.4688 30.8594C40.6875 30.3385 39.6784 30.0456 38.4414 29.9805H11.1836C9.36069 29.9805 7.83069 29.3294 6.59379 28.0273C5.29169 26.8555 4.64059 25.3581 4.64059 23.5352C4.64059 21.7773 5.25909 20.2799 6.49609 19.043C7.79819 17.806 9.36069 17.1875 11.1836 17.1875H37.8555C42.4128 17.2526 46.1562 18.2617 49.0859 20.2148C52.0807 22.1029 54.1966 24.3164 55.4336 26.8555C56.7357 29.3945 57.3867 31.9336 57.3867 34.4727C57.3867 37.0117 56.7357 39.5182 55.4336 41.9922C54.8477 43.1641 54.099 44.2383 53.1875 45.2148C54.2943 46.3867 55.2057 47.6237 55.9219 48.9258C57.1589 51.5299 57.7773 54.1667 57.7773 56.8359C57.7773 59.375 57.1263 61.9466 55.8242 64.5508C54.5221 67.0898 52.4062 69.3685 49.4766 71.3867C46.5469 73.3398 42.8034 74.3815 38.2461 74.5117H37.6602C37.2695 74.5768 36.8789 74.6094 36.4883 74.6094H11.3789C9.55599 74.6094 7.99349 73.9909 6.69139 72.7539C5.45439 71.4518 4.83589 69.8893 4.83589 68.0664Z" fill="#D1D5DB" fill-opacity="0.16"/>
</g>
<mask id="mask1_2_2" style="mask-type:luminance" maskUnits="userSpaceOnUse" x="0" y="-11" width="54" height="100">
<path d="M54 -11H0V89H54V-11Z" fill="white"/>
</mask>
<g mask="url(#mask1_2_2)">
<path d="M18.8359 68.0664C18.8359 66.2435 19.487 64.7135 20.7891 63.4766C22.026 62.1745 23.556 61.5234 25.3789 61.5234H56.832C58.069 61.4583 59.0781 61.1654 59.8594 60.6445C60.7057 60.1237 61.3242 59.5378 61.7148 58.8867C62.1055 58.2357 62.3008 57.5521 62.3008 56.8359C62.3008 56.1198 62.1055 55.4362 61.7148 54.7852C61.3242 54.1341 60.7057 53.5482 59.8594 53.0273C59.0781 52.5065 58.069 52.2135 56.832 52.1484H25.5742C23.7513 52.1484 22.2214 51.4974 20.9844 50.1953C19.6823 48.9583 19.0312 47.4284 19.0312 45.6055C19.0312 43.7826 19.6497 42.2526 20.8867 41.0156C22.1888 39.7135 23.7513 39.0625 25.5742 39.0625H56.2461C56.3112 39.0625 56.3763 39.0625 56.4414 39.0625C57.6784 38.9974 58.6875 38.737 59.4688 38.2812C60.3151 37.7604 60.9336 37.1745 61.3242 36.5234C61.7148 35.8724 61.9102 35.1888 61.9102 34.4727C61.9102 33.8216 61.7148 33.1706 61.3242 32.5195C60.9336 31.8685 60.3151 31.3151 59.4688 30.8594C58.6875 30.3385 57.6784 30.0456 56.4414 29.9805H25.1836C23.3607 29.9805 21.8307 29.3294 20.5938 28.0273C19.2917 26.8555 18.6406 25.3581 18.6406 23.5352C18.6406 21.7773 19.2591 20.2799 20.4961 19.043C21.7982 17.806 23.3607 17.1875 25.1836 17.1875H55.8555C60.4128 17.2526 64.1562 18.2617 67.0859 20.2148C70.0807 22.1029 72.1966 24.3164 73.4336 26.8555C74.7357 29.3945 75.3867 31.9336 75.3867 34.4727C75.3867 37.0117 74.7357 39.5182 73.4336 41.9922C72.8477 43.1641 72.099 44.2383 71.1875 45.2148C72.2943 46.3867 73.2057 47.6237 73.9219 48.9258C75.1589 51.5299 75.7773 54.1667 75.7773 56.8359C75.7773 59.375 75.1263 61.9466 73.8242 64.5508C72.5221 67.0898 70.4062 69.3685 67.4766 71.3867C64.5469 73.3398 60.8034 74.3815 56.2461 74.5117H55.6602C55.2695 74.5768 54.8789 74.6094 54.4883 74.6094H25.3789C23.556 74.6094 21.9935 73.9909 20.6914 72.7539C19.4544 71.4518 18.8359 69.8893 18.8359 68.0664Z" fill="#8F8F8F"/>
</g>
<path d="M33.8359 68.0664C33.8359 66.2435 34.487 64.7135 35.7891 63.4766C37.026 62.1745 38.556 61.5234 40.3789 61.5234H67.832C69.069 61.4583 70.0781 61.1654 70.8594 60.6445C71.7057 60.1237 72.3242 59.5378 72.7148 58.8867C73.1055 58.2357 73.3008 57.5521 73.3008 56.8359C73.3008 56.1198 73.1055 55.4362 72.7148 54.7852C72.3242 54.1341 71.7057 53.5482 70.8594 53.0273C70.0781 52.5065 69.069 52.2135 67.832 52.1484H40.5742C38.7513 52.1484 37.2214 51.4974 35.9844 50.1953C34.6823 48.9583 34.0312 47.4284 34.0312 45.6055C34.0312 43.7826 34.6497 42.2526 35.8867 41.0156C37.1888 39.7135 38.7513 39.0625 40.5742 39.0625H67.2461C67.3112 39.0625 67.3763 39.0625 67.4414 39.0625C68.6784 38.9974 69.6875 38.737 70.4688 38.2812C71.3151 37.7604 71.9336 37.1745 72.3242 36.5234C72.7148 35.8724 72.9102 35.1888 72.9102 34.4727C72.9102 33.8216 72.7148 33.1706 72.3242 32.5195C71.9336 31.8685 71.3151 31.3151 70.4688 30.8594C69.6875 30.3385 68.6784 30.0456 67.4414 29.9805H40.1836C38.3607 29.9805 36.8307 29.3294 35.5938 28.0273C34.2917 26.8555 33.6406 25.3581 33.6406 23.5352C33.6406 21.7773 34.2591 20.2799 35.4961 19.043C36.7982 17.806 38.3607 17.1875 40.1836 17.1875H66.8555C71.4128 17.2526 75.1562 18.2617 78.0859 20.2148C81.0807 22.1029 83.1966 24.3164 84.4336 26.8555C85.7357 29.3945 86.387 31.9336 86.387 34.4727C86.387 37.0117 85.7357 39.5182 84.4336 41.9922C83.8477 43.1641 83.099 44.2383 82.1875 45.2148C83.2943 46.3867 84.2057 47.6237 84.9219 48.9258C86.159 51.5299 86.777 54.1667 86.777 56.8359C86.777 59.375 86.126 61.9466 84.8242 64.5508C83.5221 67.0898 81.4062 69.3685 78.4766 71.3867C75.5469 73.3398 71.8034 74.3815 67.2461 74.5117H66.6602C66.2695 74.5768 65.8789 74.6094 65.4883 74.6094H40.3789C38.556 74.6094 36.9935 73.9909 35.6914 72.7539C34.4544 71.4518 33.8359 69.8893 33.8359 68.0664Z" fill="white"/>
</g>
<defs>
<clipPath id="clip0_2_2">
<rect width="92" height="92" fill="white"/>
</clipPath>
</defs>
</svg>
